# xmcd CD database file
#
# Track frame offsets:
#	150
#	14482
#	26160
#	45245
#	59882
#	76892
#	94382
#	109754
#	125964
#	150280
#	168582
#	189946
#	227191
#	276758
#
# Disc length: 3842 seconds
#
# Revision: 0
# Processed by: cddbd v1.4PL0 Copyright (c) Steve Scherf et al.
# Submitted via: CDex 1.50
#
DISCID=bc0f000e
DTITLE=Miles Davis - The best of Miles Davis
DYEAR=1992
DGENRE=Blues
TTITLE0=Move
TTITLE1=Godchild
TTITLE2=Budo
TTITLE3=Dear Old Stockholm
TTITLE4=Donna
TTITLE5=Yesterdays
TTITLE6=Tempus Fugit
TTITLE7=Enigma
TTITLE8=Cta
TTITLE9=You well needn't
TTITLE10=It Never Entered My Mind
TTITLE11=Weirdo
TTITLE12=Somethin´ Else
TTITLE13=Autumn Leaves
EXTD=YEAR: 1992
EXTT0=
EXTT1=
EXTT2=
EXTT3=
EXTT4=
EXTT5=
EXTT6=
EXTT7=
EXTT8=
EXTT9=
EXTT10=
EXTT11=
EXTT12=
EXTT13=
PLAYORDER=
